M48
;DRILL file {KiCad 4.0.7-e2-6376~58~ubuntu16.04.1} date Sun Mar  4 02:19:18 2018
;FORMAT={-:-/ absolute / inch / decimal}
FMAT,2
INCH,TZ
T1C0.016
T2C0.024
T3C0.031
%
G90
G05
M72
T1
X5.689Y-4.7047
X5.7224Y-4.3761
X5.7274Y-4.4557
X5.7341Y-4.4155
X5.7677Y-4.6063
X5.8127Y-4.4159
X5.8522Y-4.4002
X5.9966Y-4.3284
X5.9971Y-4.3943
X6.0276Y-4.7047
X6.0433Y-4.2913
X6.0433Y-4.3878
X6.1811Y-4.6457
X6.2644Y-4.4094
T2
X5.4134Y-4.2126
X5.4287Y-4.0945
X5.5931Y-4.5344
X5.9646Y-4.1732
X6.2205Y-4.1535
X6.2598Y-4.5472
T3
X5.4585Y-4.4841
X5.4586Y-4.3346
T0
M30
