G04 #@! TF.FileFunction,Soldermask,Top*
%FSLAX46Y46*%
G04 Gerber Fmt 4.6, Leading zero omitted, Abs format (unit mm)*
G04 Created by KiCad (PCBNEW 4.0.7-e2-6376~58~ubuntu16.04.1) date Sun Mar  4 02:19:13 2018*
%MOMM*%
%LPD*%
G01*
G04 APERTURE LIST*
%ADD10C,0.100000*%
%ADD11R,1.250000X1.000000*%
%ADD12R,1.000000X1.250000*%
%ADD13R,0.700000X1.300000*%
%ADD14R,1.897380X1.897380*%
%ADD15R,2.000000X0.398780*%
%ADD16C,0.797560*%
%ADD17R,0.800000X0.900000*%
%ADD18R,1.300000X0.700000*%
%ADD19R,1.060000X0.650000*%
%ADD20R,0.508000X1.143000*%
%ADD21R,1.400000X1.150000*%
%ADD22R,3.000000X1.500000*%
%ADD23R,0.900000X0.800000*%
G04 APERTURE END LIST*
D10*
D11*
X139500000Y-106000000D03*
X139500000Y-104000000D03*
D12*
X146000000Y-106000000D03*
X148000000Y-106000000D03*
D11*
X150000000Y-104000000D03*
X150000000Y-106000000D03*
X159000000Y-104000000D03*
X159000000Y-106000000D03*
X146500000Y-120000000D03*
X146500000Y-118000000D03*
D12*
X156000000Y-119500000D03*
X154000000Y-119500000D03*
D13*
X155000000Y-104000000D03*
X153100000Y-104000000D03*
D14*
X136500000Y-110801120D03*
X136500000Y-113198880D03*
X136500000Y-115949700D03*
X136500000Y-108050300D03*
D15*
X139500000Y-110699520D03*
X139500000Y-111352300D03*
X139500000Y-112000000D03*
X139500000Y-112647700D03*
X139500000Y-113300480D03*
D16*
X138646300Y-113897380D03*
X138648840Y-110100080D03*
D17*
X155600000Y-109000000D03*
X157500000Y-109000000D03*
X156550000Y-107000000D03*
X157500000Y-115000000D03*
X155600000Y-115000000D03*
X156550000Y-117000000D03*
D18*
X140500000Y-119950000D03*
X140500000Y-118050000D03*
X143500000Y-119950000D03*
X143500000Y-118050000D03*
X155000000Y-112900000D03*
X155000000Y-111000000D03*
X157500000Y-112900000D03*
X157500000Y-111000000D03*
D19*
X141800000Y-104150000D03*
X141800000Y-105100000D03*
X141800000Y-106050000D03*
X144000000Y-106050000D03*
X144000000Y-104150000D03*
D20*
X142920000Y-108825000D03*
X145460000Y-108825000D03*
X146730000Y-108825000D03*
X148000000Y-108825000D03*
X149270000Y-108825000D03*
X150540000Y-108825000D03*
X151810000Y-108825000D03*
X151810000Y-115175000D03*
X150540000Y-115175000D03*
X149270000Y-115175000D03*
X148000000Y-115175000D03*
X146730000Y-115175000D03*
X145460000Y-115175000D03*
X144190000Y-115175000D03*
X142920000Y-115175000D03*
X144190000Y-108825000D03*
D21*
X149300000Y-119800000D03*
X151500000Y-119800000D03*
X151500000Y-118200000D03*
X149300000Y-118200000D03*
D22*
X160500000Y-115175000D03*
X165000000Y-113905000D03*
X160500000Y-112635000D03*
X165000000Y-111365000D03*
X160500000Y-110095000D03*
X165000000Y-108825000D03*
D23*
X162000000Y-104050000D03*
X162000000Y-105950000D03*
X164000000Y-105000000D03*
M02*
