G04 #@! TF.FileFunction,Legend,Top*
%FSLAX46Y46*%
G04 Gerber Fmt 4.6, Leading zero omitted, Abs format (unit mm)*
G04 Created by KiCad (PCBNEW 4.0.7-e2-6376~58~ubuntu16.04.1) date Sun Mar  4 02:19:13 2018*
%MOMM*%
%LPD*%
G01*
G04 APERTURE LIST*
%ADD10C,0.100000*%
%ADD11C,0.120000*%
%ADD12C,0.200660*%
%ADD13C,0.150000*%
%ADD14C,0.099060*%
G04 APERTURE END LIST*
D10*
D11*
X138650000Y-104500000D02*
X138650000Y-105500000D01*
X140350000Y-105500000D02*
X140350000Y-104500000D01*
X147500000Y-105150000D02*
X146500000Y-105150000D01*
X146500000Y-106850000D02*
X147500000Y-106850000D01*
X150850000Y-105500000D02*
X150850000Y-104500000D01*
X149150000Y-104500000D02*
X149150000Y-105500000D01*
X159850000Y-105500000D02*
X159850000Y-104500000D01*
X158150000Y-104500000D02*
X158150000Y-105500000D01*
X145650000Y-118500000D02*
X145650000Y-119500000D01*
X147350000Y-119500000D02*
X147350000Y-118500000D01*
X154500000Y-120350000D02*
X155500000Y-120350000D01*
X155500000Y-118650000D02*
X154500000Y-118650000D01*
X153450000Y-103120000D02*
X154650000Y-103120000D01*
X154650000Y-104880000D02*
X153450000Y-104880000D01*
D12*
X134501020Y-107798840D02*
X134501020Y-116201160D01*
X134399420Y-107798840D02*
X134399420Y-116201160D01*
X134399420Y-116201160D02*
X134600080Y-116201160D01*
X134600080Y-116201160D02*
X134600080Y-107798840D01*
X134600080Y-107798840D02*
X134399420Y-107798840D01*
X134399420Y-108101100D02*
X139400680Y-108101100D01*
X139400680Y-108101100D02*
X139400680Y-115898900D01*
X139400680Y-115898900D02*
X134399420Y-115898900D01*
D11*
X158130000Y-107240000D02*
X157200000Y-107240000D01*
X154970000Y-107240000D02*
X155900000Y-107240000D01*
X154970000Y-107240000D02*
X154970000Y-109400000D01*
X158130000Y-107240000D02*
X158130000Y-108700000D01*
X154970000Y-116760000D02*
X155900000Y-116760000D01*
X158130000Y-116760000D02*
X157200000Y-116760000D01*
X158130000Y-116760000D02*
X158130000Y-114600000D01*
X154970000Y-116760000D02*
X154970000Y-115300000D01*
X141380000Y-118400000D02*
X141380000Y-119600000D01*
X139620000Y-119600000D02*
X139620000Y-118400000D01*
X144380000Y-118400000D02*
X144380000Y-119600000D01*
X142620000Y-119600000D02*
X142620000Y-118400000D01*
X155880000Y-111350000D02*
X155880000Y-112550000D01*
X154120000Y-112550000D02*
X154120000Y-111350000D01*
X158380000Y-111350000D02*
X158380000Y-112550000D01*
X156620000Y-112550000D02*
X156620000Y-111350000D01*
X142000000Y-106710000D02*
X143800000Y-106710000D01*
X143800000Y-103490000D02*
X141350000Y-103490000D01*
D13*
X141777000Y-111238000D02*
X142539000Y-111238000D01*
X142539000Y-111238000D02*
X142539000Y-112762000D01*
X142539000Y-112762000D02*
X141777000Y-112762000D01*
X152953000Y-109714000D02*
X152953000Y-114286000D01*
X152953000Y-114286000D02*
X141777000Y-114286000D01*
X141777000Y-114286000D02*
X141777000Y-109714000D01*
X141777000Y-109714000D02*
X152953000Y-109714000D01*
D11*
X148400000Y-117425000D02*
X148400000Y-120575000D01*
X148400000Y-120575000D02*
X152400000Y-120575000D01*
D13*
X160250000Y-116750000D02*
X160250000Y-107250000D01*
X165250000Y-116750000D02*
X165250000Y-107250000D01*
X160250000Y-116750000D02*
X165250000Y-116750000D01*
X160250000Y-107250000D02*
X165250000Y-107250000D01*
X161250000Y-116750000D02*
X161250000Y-116250000D01*
X161250000Y-116250000D02*
X164250000Y-116250000D01*
X164250000Y-116750000D02*
X164250000Y-116250000D01*
D11*
X163760000Y-106580000D02*
X163760000Y-105650000D01*
X163760000Y-103420000D02*
X163760000Y-104350000D01*
X163760000Y-103420000D02*
X161600000Y-103420000D01*
X163760000Y-106580000D02*
X162300000Y-106580000D01*
D13*
X137333334Y-105857143D02*
X137285715Y-105904762D01*
X137142858Y-105952381D01*
X137047620Y-105952381D01*
X136904762Y-105904762D01*
X136809524Y-105809524D01*
X136761905Y-105714286D01*
X136714286Y-105523810D01*
X136714286Y-105380952D01*
X136761905Y-105190476D01*
X136809524Y-105095238D01*
X136904762Y-105000000D01*
X137047620Y-104952381D01*
X137142858Y-104952381D01*
X137285715Y-105000000D01*
X137333334Y-105047619D01*
X138285715Y-105952381D02*
X137714286Y-105952381D01*
X138000000Y-105952381D02*
X138000000Y-104952381D01*
X137904762Y-105095238D01*
X137809524Y-105190476D01*
X137714286Y-105238095D01*
X146833334Y-104857143D02*
X146785715Y-104904762D01*
X146642858Y-104952381D01*
X146547620Y-104952381D01*
X146404762Y-104904762D01*
X146309524Y-104809524D01*
X146261905Y-104714286D01*
X146214286Y-104523810D01*
X146214286Y-104380952D01*
X146261905Y-104190476D01*
X146309524Y-104095238D01*
X146404762Y-104000000D01*
X146547620Y-103952381D01*
X146642858Y-103952381D01*
X146785715Y-104000000D01*
X146833334Y-104047619D01*
X147214286Y-104047619D02*
X147261905Y-104000000D01*
X147357143Y-103952381D01*
X147595239Y-103952381D01*
X147690477Y-104000000D01*
X147738096Y-104047619D01*
X147785715Y-104142857D01*
X147785715Y-104238095D01*
X147738096Y-104380952D01*
X147166667Y-104952381D01*
X147785715Y-104952381D01*
X151857143Y-104666666D02*
X151904762Y-104714285D01*
X151952381Y-104857142D01*
X151952381Y-104952380D01*
X151904762Y-105095238D01*
X151809524Y-105190476D01*
X151714286Y-105238095D01*
X151523810Y-105285714D01*
X151380952Y-105285714D01*
X151190476Y-105238095D01*
X151095238Y-105190476D01*
X151000000Y-105095238D01*
X150952381Y-104952380D01*
X150952381Y-104857142D01*
X151000000Y-104714285D01*
X151047619Y-104666666D01*
X150952381Y-104333333D02*
X150952381Y-103714285D01*
X151333333Y-104047619D01*
X151333333Y-103904761D01*
X151380952Y-103809523D01*
X151428571Y-103761904D01*
X151523810Y-103714285D01*
X151761905Y-103714285D01*
X151857143Y-103761904D01*
X151904762Y-103809523D01*
X151952381Y-103904761D01*
X151952381Y-104190476D01*
X151904762Y-104285714D01*
X151857143Y-104333333D01*
X160857143Y-105166666D02*
X160904762Y-105214285D01*
X160952381Y-105357142D01*
X160952381Y-105452380D01*
X160904762Y-105595238D01*
X160809524Y-105690476D01*
X160714286Y-105738095D01*
X160523810Y-105785714D01*
X160380952Y-105785714D01*
X160190476Y-105738095D01*
X160095238Y-105690476D01*
X160000000Y-105595238D01*
X159952381Y-105452380D01*
X159952381Y-105357142D01*
X160000000Y-105214285D01*
X160047619Y-105166666D01*
X160285714Y-104309523D02*
X160952381Y-104309523D01*
X159904762Y-104547619D02*
X160619048Y-104785714D01*
X160619048Y-104166666D01*
X145357143Y-119166666D02*
X145404762Y-119214285D01*
X145452381Y-119357142D01*
X145452381Y-119452380D01*
X145404762Y-119595238D01*
X145309524Y-119690476D01*
X145214286Y-119738095D01*
X145023810Y-119785714D01*
X144880952Y-119785714D01*
X144690476Y-119738095D01*
X144595238Y-119690476D01*
X144500000Y-119595238D01*
X144452381Y-119452380D01*
X144452381Y-119357142D01*
X144500000Y-119214285D01*
X144547619Y-119166666D01*
X144452381Y-118261904D02*
X144452381Y-118738095D01*
X144928571Y-118785714D01*
X144880952Y-118738095D01*
X144833333Y-118642857D01*
X144833333Y-118404761D01*
X144880952Y-118309523D01*
X144928571Y-118261904D01*
X145023810Y-118214285D01*
X145261905Y-118214285D01*
X145357143Y-118261904D01*
X145404762Y-118309523D01*
X145452381Y-118404761D01*
X145452381Y-118642857D01*
X145404762Y-118738095D01*
X145357143Y-118785714D01*
X154333334Y-117857143D02*
X154285715Y-117904762D01*
X154142858Y-117952381D01*
X154047620Y-117952381D01*
X153904762Y-117904762D01*
X153809524Y-117809524D01*
X153761905Y-117714286D01*
X153714286Y-117523810D01*
X153714286Y-117380952D01*
X153761905Y-117190476D01*
X153809524Y-117095238D01*
X153904762Y-117000000D01*
X154047620Y-116952381D01*
X154142858Y-116952381D01*
X154285715Y-117000000D01*
X154333334Y-117047619D01*
X155190477Y-116952381D02*
X155000000Y-116952381D01*
X154904762Y-117000000D01*
X154857143Y-117047619D01*
X154761905Y-117190476D01*
X154714286Y-117380952D01*
X154714286Y-117761905D01*
X154761905Y-117857143D01*
X154809524Y-117904762D01*
X154904762Y-117952381D01*
X155095239Y-117952381D01*
X155190477Y-117904762D01*
X155238096Y-117857143D01*
X155285715Y-117761905D01*
X155285715Y-117523810D01*
X155238096Y-117428571D01*
X155190477Y-117380952D01*
X155095239Y-117333333D01*
X154904762Y-117333333D01*
X154809524Y-117380952D01*
X154761905Y-117428571D01*
X154714286Y-117523810D01*
X153883334Y-106102381D02*
X153407143Y-106102381D01*
X153407143Y-105102381D01*
X154740477Y-106102381D02*
X154169048Y-106102381D01*
X154454762Y-106102381D02*
X154454762Y-105102381D01*
X154359524Y-105245238D01*
X154264286Y-105340476D01*
X154169048Y-105388095D01*
D14*
X140035982Y-116064968D02*
X140441052Y-116064968D01*
X140488707Y-116041140D01*
X140512535Y-116017313D01*
X140536362Y-115969657D01*
X140536362Y-115874347D01*
X140512535Y-115826692D01*
X140488707Y-115802864D01*
X140441052Y-115779036D01*
X140035982Y-115779036D01*
X140512535Y-115564588D02*
X140536362Y-115493105D01*
X140536362Y-115373967D01*
X140512535Y-115326311D01*
X140488707Y-115302484D01*
X140441052Y-115278656D01*
X140393397Y-115278656D01*
X140345741Y-115302484D01*
X140321914Y-115326311D01*
X140298086Y-115373967D01*
X140274259Y-115469277D01*
X140250431Y-115516932D01*
X140226603Y-115540760D01*
X140178948Y-115564588D01*
X140131293Y-115564588D01*
X140083638Y-115540760D01*
X140059810Y-115516932D01*
X140035982Y-115469277D01*
X140035982Y-115350139D01*
X140059810Y-115278656D01*
X140274259Y-114897415D02*
X140298086Y-114825932D01*
X140321914Y-114802104D01*
X140369569Y-114778276D01*
X140441052Y-114778276D01*
X140488707Y-114802104D01*
X140512535Y-114825932D01*
X140536362Y-114873587D01*
X140536362Y-115064208D01*
X140035982Y-115064208D01*
X140035982Y-114897415D01*
X140059810Y-114849759D01*
X140083638Y-114825932D01*
X140131293Y-114802104D01*
X140178948Y-114802104D01*
X140226603Y-114825932D01*
X140250431Y-114849759D01*
X140274259Y-114897415D01*
X140274259Y-115064208D01*
X140584018Y-114682966D02*
X140584018Y-114301724D01*
X140035982Y-114087275D02*
X140035982Y-113991965D01*
X140059810Y-113944310D01*
X140107465Y-113896654D01*
X140202776Y-113872827D01*
X140369569Y-113872827D01*
X140464880Y-113896654D01*
X140512535Y-113944310D01*
X140536362Y-113991965D01*
X140536362Y-114087275D01*
X140512535Y-114134931D01*
X140464880Y-114182586D01*
X140369569Y-114206414D01*
X140202776Y-114206414D01*
X140107465Y-114182586D01*
X140059810Y-114134931D01*
X140035982Y-114087275D01*
X140035982Y-113729861D02*
X140035982Y-113443929D01*
X140536362Y-113586895D02*
X140035982Y-113586895D01*
X140059810Y-113015032D02*
X140035982Y-113062687D01*
X140035982Y-113134170D01*
X140059810Y-113205653D01*
X140107465Y-113253308D01*
X140155120Y-113277136D01*
X140250431Y-113300964D01*
X140321914Y-113300964D01*
X140417224Y-113277136D01*
X140464880Y-113253308D01*
X140512535Y-113205653D01*
X140536362Y-113134170D01*
X140536362Y-113086515D01*
X140512535Y-113015032D01*
X140488707Y-112991204D01*
X140321914Y-112991204D01*
X140321914Y-113086515D01*
D13*
X159404762Y-108547619D02*
X159309524Y-108500000D01*
X159214286Y-108404762D01*
X159071429Y-108261905D01*
X158976190Y-108214286D01*
X158880952Y-108214286D01*
X158928571Y-108452381D02*
X158833333Y-108404762D01*
X158738095Y-108309524D01*
X158690476Y-108119048D01*
X158690476Y-107785714D01*
X158738095Y-107595238D01*
X158833333Y-107500000D01*
X158928571Y-107452381D01*
X159119048Y-107452381D01*
X159214286Y-107500000D01*
X159309524Y-107595238D01*
X159357143Y-107785714D01*
X159357143Y-108119048D01*
X159309524Y-108309524D01*
X159214286Y-108404762D01*
X159119048Y-108452381D01*
X158928571Y-108452381D01*
X160309524Y-108452381D02*
X159738095Y-108452381D01*
X160023809Y-108452381D02*
X160023809Y-107452381D01*
X159928571Y-107595238D01*
X159833333Y-107690476D01*
X159738095Y-107738095D01*
X158404762Y-119047619D02*
X158309524Y-119000000D01*
X158214286Y-118904762D01*
X158071429Y-118761905D01*
X157976190Y-118714286D01*
X157880952Y-118714286D01*
X157928571Y-118952381D02*
X157833333Y-118904762D01*
X157738095Y-118809524D01*
X157690476Y-118619048D01*
X157690476Y-118285714D01*
X157738095Y-118095238D01*
X157833333Y-118000000D01*
X157928571Y-117952381D01*
X158119048Y-117952381D01*
X158214286Y-118000000D01*
X158309524Y-118095238D01*
X158357143Y-118285714D01*
X158357143Y-118619048D01*
X158309524Y-118809524D01*
X158214286Y-118904762D01*
X158119048Y-118952381D01*
X157928571Y-118952381D01*
X158738095Y-118047619D02*
X158785714Y-118000000D01*
X158880952Y-117952381D01*
X159119048Y-117952381D01*
X159214286Y-118000000D01*
X159261905Y-118047619D01*
X159309524Y-118142857D01*
X159309524Y-118238095D01*
X159261905Y-118380952D01*
X158690476Y-118952381D01*
X159309524Y-118952381D01*
X139302381Y-119166666D02*
X138826190Y-119500000D01*
X139302381Y-119738095D02*
X138302381Y-119738095D01*
X138302381Y-119357142D01*
X138350000Y-119261904D01*
X138397619Y-119214285D01*
X138492857Y-119166666D01*
X138635714Y-119166666D01*
X138730952Y-119214285D01*
X138778571Y-119261904D01*
X138826190Y-119357142D01*
X138826190Y-119738095D01*
X139302381Y-118214285D02*
X139302381Y-118785714D01*
X139302381Y-118500000D02*
X138302381Y-118500000D01*
X138445238Y-118595238D01*
X138540476Y-118690476D01*
X138588095Y-118785714D01*
X142302381Y-119166666D02*
X141826190Y-119500000D01*
X142302381Y-119738095D02*
X141302381Y-119738095D01*
X141302381Y-119357142D01*
X141350000Y-119261904D01*
X141397619Y-119214285D01*
X141492857Y-119166666D01*
X141635714Y-119166666D01*
X141730952Y-119214285D01*
X141778571Y-119261904D01*
X141826190Y-119357142D01*
X141826190Y-119738095D01*
X141397619Y-118785714D02*
X141350000Y-118738095D01*
X141302381Y-118642857D01*
X141302381Y-118404761D01*
X141350000Y-118309523D01*
X141397619Y-118261904D01*
X141492857Y-118214285D01*
X141588095Y-118214285D01*
X141730952Y-118261904D01*
X142302381Y-118833333D01*
X142302381Y-118214285D01*
X153452381Y-115666666D02*
X152976190Y-116000000D01*
X153452381Y-116238095D02*
X152452381Y-116238095D01*
X152452381Y-115857142D01*
X152500000Y-115761904D01*
X152547619Y-115714285D01*
X152642857Y-115666666D01*
X152785714Y-115666666D01*
X152880952Y-115714285D01*
X152928571Y-115761904D01*
X152976190Y-115857142D01*
X152976190Y-116238095D01*
X152452381Y-115333333D02*
X152452381Y-114714285D01*
X152833333Y-115047619D01*
X152833333Y-114904761D01*
X152880952Y-114809523D01*
X152928571Y-114761904D01*
X153023810Y-114714285D01*
X153261905Y-114714285D01*
X153357143Y-114761904D01*
X153404762Y-114809523D01*
X153452381Y-114904761D01*
X153452381Y-115190476D01*
X153404762Y-115285714D01*
X153357143Y-115333333D01*
X154952381Y-115666666D02*
X154476190Y-116000000D01*
X154952381Y-116238095D02*
X153952381Y-116238095D01*
X153952381Y-115857142D01*
X154000000Y-115761904D01*
X154047619Y-115714285D01*
X154142857Y-115666666D01*
X154285714Y-115666666D01*
X154380952Y-115714285D01*
X154428571Y-115761904D01*
X154476190Y-115857142D01*
X154476190Y-116238095D01*
X154285714Y-114809523D02*
X154952381Y-114809523D01*
X153904762Y-115047619D02*
X154619048Y-115285714D01*
X154619048Y-114666666D01*
X140738095Y-106952381D02*
X140738095Y-107761905D01*
X140785714Y-107857143D01*
X140833333Y-107904762D01*
X140928571Y-107952381D01*
X141119048Y-107952381D01*
X141214286Y-107904762D01*
X141261905Y-107857143D01*
X141309524Y-107761905D01*
X141309524Y-106952381D01*
X142309524Y-107952381D02*
X141738095Y-107952381D01*
X142023809Y-107952381D02*
X142023809Y-106952381D01*
X141928571Y-107095238D01*
X141833333Y-107190476D01*
X141738095Y-107238095D01*
X140738095Y-108452381D02*
X140738095Y-109261905D01*
X140785714Y-109357143D01*
X140833333Y-109404762D01*
X140928571Y-109452381D01*
X141119048Y-109452381D01*
X141214286Y-109404762D01*
X141261905Y-109357143D01*
X141309524Y-109261905D01*
X141309524Y-108452381D01*
X141738095Y-108547619D02*
X141785714Y-108500000D01*
X141880952Y-108452381D01*
X142119048Y-108452381D01*
X142214286Y-108500000D01*
X142261905Y-108547619D01*
X142309524Y-108642857D01*
X142309524Y-108738095D01*
X142261905Y-108880952D01*
X141690476Y-109452381D01*
X142309524Y-109452381D01*
X149590476Y-116002381D02*
X150257143Y-117002381D01*
X150257143Y-116002381D02*
X149590476Y-117002381D01*
X151161905Y-117002381D02*
X150590476Y-117002381D01*
X150876190Y-117002381D02*
X150876190Y-116002381D01*
X150780952Y-116145238D01*
X150685714Y-116240476D01*
X150590476Y-116288095D01*
X165952381Y-105738095D02*
X164952381Y-105738095D01*
X164952381Y-105500000D01*
X165000000Y-105357142D01*
X165095238Y-105261904D01*
X165190476Y-105214285D01*
X165380952Y-105166666D01*
X165523810Y-105166666D01*
X165714286Y-105214285D01*
X165809524Y-105261904D01*
X165904762Y-105357142D01*
X165952381Y-105500000D01*
X165952381Y-105738095D01*
X165952381Y-104214285D02*
X165952381Y-104785714D01*
X165952381Y-104500000D02*
X164952381Y-104500000D01*
X165095238Y-104595238D01*
X165190476Y-104690476D01*
X165238095Y-104785714D01*
M02*
