G04 #@! TF.FileFunction,Copper,L2,Bot,Signal*
%FSLAX46Y46*%
G04 Gerber Fmt 4.6, Leading zero omitted, Abs format (unit mm)*
G04 Created by KiCad (PCBNEW 4.0.7-e2-6376~58~ubuntu16.04.1) date Sun Mar  4 02:19:13 2018*
%MOMM*%
%LPD*%
G01*
G04 APERTURE LIST*
%ADD10C,0.100000*%
%ADD11C,0.797560*%
%ADD12C,0.900000*%
%ADD13C,0.600000*%
%ADD14C,0.400000*%
%ADD15C,0.254000*%
G04 APERTURE END LIST*
D10*
D11*
X138646300Y-113897380D03*
X138648840Y-110100080D03*
D12*
X137889379Y-103999473D03*
X159000000Y-115500000D03*
X158000000Y-105500000D03*
D13*
X146500000Y-117000000D03*
X153100000Y-119500000D03*
D12*
X151500000Y-106000000D03*
X142066000Y-115175000D03*
X137500000Y-107000000D03*
D13*
X148645172Y-111765330D03*
X145348075Y-111151925D03*
X145646135Y-112154129D03*
X147643170Y-112162950D03*
X153500000Y-109000000D03*
X153500000Y-111450000D03*
X152312425Y-109942615D03*
X152326366Y-111615572D03*
X145477045Y-113175463D03*
X159115000Y-112000000D03*
X157000000Y-118000000D03*
X144500000Y-119500000D03*
D14*
X148031767Y-111151925D02*
X148345173Y-111465331D01*
X145348075Y-111151925D02*
X148031767Y-111151925D01*
X148345173Y-111465331D02*
X148645172Y-111765330D01*
X145654956Y-112162950D02*
X145646135Y-112154129D01*
X147643170Y-112162950D02*
X145654956Y-112162950D01*
X153500000Y-111450000D02*
X153500000Y-109000000D01*
X152326366Y-109956556D02*
X152312425Y-109942615D01*
X152326366Y-111615572D02*
X152326366Y-109956556D01*
X145901309Y-113175463D02*
X145477045Y-113175463D01*
X157939537Y-113175463D02*
X145901309Y-113175463D01*
X159115000Y-112000000D02*
X157939537Y-113175463D01*
X146000000Y-118000000D02*
X157000000Y-118000000D01*
X144500000Y-119500000D02*
X146000000Y-118000000D01*
D15*
G36*
X164880777Y-103873617D02*
X165627463Y-104372537D01*
X166126383Y-105119225D01*
X166315000Y-106067467D01*
X166315000Y-117932533D01*
X166126383Y-118880775D01*
X165627463Y-119627463D01*
X164880777Y-120126383D01*
X163932533Y-120315000D01*
X144975982Y-120315000D01*
X145028943Y-120293117D01*
X145292192Y-120030327D01*
X145392778Y-119788090D01*
X146345868Y-118835000D01*
X156572766Y-118835000D01*
X156813201Y-118934838D01*
X157185167Y-118935162D01*
X157528943Y-118793117D01*
X157792192Y-118530327D01*
X157934838Y-118186799D01*
X157935162Y-117814833D01*
X157793117Y-117471057D01*
X157530327Y-117207808D01*
X157186799Y-117065162D01*
X156814833Y-117064838D01*
X156572422Y-117165000D01*
X146000000Y-117165000D01*
X145680459Y-117228561D01*
X145409566Y-117409566D01*
X144211667Y-118607465D01*
X143971057Y-118706883D01*
X143707808Y-118969673D01*
X143565162Y-119313201D01*
X143564838Y-119685167D01*
X143706883Y-120028943D01*
X143969673Y-120292192D01*
X144024600Y-120315000D01*
X138067467Y-120315000D01*
X137119225Y-120126383D01*
X136372537Y-119627463D01*
X135873617Y-118880777D01*
X135685000Y-117932533D01*
X135685000Y-114613841D01*
X138109444Y-114613841D01*
X138134014Y-114818546D01*
X138525524Y-114944470D01*
X138935422Y-114910984D01*
X139158586Y-114818546D01*
X139183156Y-114613841D01*
X138646300Y-114076985D01*
X138109444Y-114613841D01*
X135685000Y-114613841D01*
X135685000Y-113776604D01*
X137599210Y-113776604D01*
X137632696Y-114186502D01*
X137725134Y-114409666D01*
X137929839Y-114434236D01*
X138466695Y-113897380D01*
X138825905Y-113897380D01*
X139362761Y-114434236D01*
X139567466Y-114409666D01*
X139693390Y-114018156D01*
X139659904Y-113608258D01*
X139567466Y-113385094D01*
X139362761Y-113360524D01*
X138825905Y-113897380D01*
X138466695Y-113897380D01*
X137929839Y-113360524D01*
X137725134Y-113385094D01*
X137599210Y-113776604D01*
X135685000Y-113776604D01*
X135685000Y-113180919D01*
X138109444Y-113180919D01*
X138646300Y-113717775D01*
X139183156Y-113180919D01*
X139158586Y-112976214D01*
X138767076Y-112850290D01*
X138357178Y-112883776D01*
X138134014Y-112976214D01*
X138109444Y-113180919D01*
X135685000Y-113180919D01*
X135685000Y-111337092D01*
X144412913Y-111337092D01*
X144554958Y-111680868D01*
X144749376Y-111875626D01*
X144711297Y-111967330D01*
X144710973Y-112339296D01*
X144792813Y-112537364D01*
X144684853Y-112645136D01*
X144542207Y-112988664D01*
X144541883Y-113360630D01*
X144683928Y-113704406D01*
X144946718Y-113967655D01*
X145290246Y-114110301D01*
X145662212Y-114110625D01*
X145904623Y-114010463D01*
X157939537Y-114010463D01*
X158259078Y-113946902D01*
X158529971Y-113765897D01*
X159403333Y-112892535D01*
X159643943Y-112793117D01*
X159907192Y-112530327D01*
X160049838Y-112186799D01*
X160050162Y-111814833D01*
X159908117Y-111471057D01*
X159645327Y-111207808D01*
X159301799Y-111065162D01*
X158929833Y-111064838D01*
X158586057Y-111206883D01*
X158322808Y-111469673D01*
X158222222Y-111711910D01*
X157593669Y-112340463D01*
X153793347Y-112340463D01*
X154028943Y-112243117D01*
X154292192Y-111980327D01*
X154434838Y-111636799D01*
X154435162Y-111264833D01*
X154335000Y-111022422D01*
X154335000Y-109427234D01*
X154434838Y-109186799D01*
X154435162Y-108814833D01*
X154293117Y-108471057D01*
X154030327Y-108207808D01*
X153686799Y-108065162D01*
X153314833Y-108064838D01*
X152971057Y-108206883D01*
X152707808Y-108469673D01*
X152565162Y-108813201D01*
X152564969Y-109035077D01*
X152499224Y-109007777D01*
X152127258Y-109007453D01*
X151783482Y-109149498D01*
X151520233Y-109412288D01*
X151377587Y-109755816D01*
X151377263Y-110127782D01*
X151491366Y-110403933D01*
X151491366Y-111188338D01*
X151391528Y-111428773D01*
X151391204Y-111800739D01*
X151533249Y-112144515D01*
X151728855Y-112340463D01*
X149392480Y-112340463D01*
X149437364Y-112295657D01*
X149580010Y-111952129D01*
X149580334Y-111580163D01*
X149438289Y-111236387D01*
X149175499Y-110973138D01*
X148933262Y-110872552D01*
X148622201Y-110561491D01*
X148600499Y-110546990D01*
X148351308Y-110380486D01*
X148031767Y-110316925D01*
X145775309Y-110316925D01*
X145534874Y-110217087D01*
X145162908Y-110216763D01*
X144819132Y-110358808D01*
X144555883Y-110621598D01*
X144413237Y-110965126D01*
X144412913Y-111337092D01*
X135685000Y-111337092D01*
X135685000Y-110304809D01*
X137614881Y-110304809D01*
X137771933Y-110684904D01*
X138062486Y-110975965D01*
X138442306Y-111133680D01*
X138853569Y-111134039D01*
X139233664Y-110976987D01*
X139524725Y-110686434D01*
X139682440Y-110306614D01*
X139682799Y-109895351D01*
X139525747Y-109515256D01*
X139235194Y-109224195D01*
X138855374Y-109066480D01*
X138444111Y-109066121D01*
X138064016Y-109223173D01*
X137772955Y-109513726D01*
X137615240Y-109893546D01*
X137614881Y-110304809D01*
X135685000Y-110304809D01*
X135685000Y-106067467D01*
X135873617Y-105119223D01*
X136372537Y-104372537D01*
X137119225Y-103873617D01*
X138067467Y-103685000D01*
X163932533Y-103685000D01*
X164880777Y-103873617D01*
X164880777Y-103873617D01*
G37*
X164880777Y-103873617D02*
X165627463Y-104372537D01*
X166126383Y-105119225D01*
X166315000Y-106067467D01*
X166315000Y-117932533D01*
X166126383Y-118880775D01*
X165627463Y-119627463D01*
X164880777Y-120126383D01*
X163932533Y-120315000D01*
X144975982Y-120315000D01*
X145028943Y-120293117D01*
X145292192Y-120030327D01*
X145392778Y-119788090D01*
X146345868Y-118835000D01*
X156572766Y-118835000D01*
X156813201Y-118934838D01*
X157185167Y-118935162D01*
X157528943Y-118793117D01*
X157792192Y-118530327D01*
X157934838Y-118186799D01*
X157935162Y-117814833D01*
X157793117Y-117471057D01*
X157530327Y-117207808D01*
X157186799Y-117065162D01*
X156814833Y-117064838D01*
X156572422Y-117165000D01*
X146000000Y-117165000D01*
X145680459Y-117228561D01*
X145409566Y-117409566D01*
X144211667Y-118607465D01*
X143971057Y-118706883D01*
X143707808Y-118969673D01*
X143565162Y-119313201D01*
X143564838Y-119685167D01*
X143706883Y-120028943D01*
X143969673Y-120292192D01*
X144024600Y-120315000D01*
X138067467Y-120315000D01*
X137119225Y-120126383D01*
X136372537Y-119627463D01*
X135873617Y-118880777D01*
X135685000Y-117932533D01*
X135685000Y-114613841D01*
X138109444Y-114613841D01*
X138134014Y-114818546D01*
X138525524Y-114944470D01*
X138935422Y-114910984D01*
X139158586Y-114818546D01*
X139183156Y-114613841D01*
X138646300Y-114076985D01*
X138109444Y-114613841D01*
X135685000Y-114613841D01*
X135685000Y-113776604D01*
X137599210Y-113776604D01*
X137632696Y-114186502D01*
X137725134Y-114409666D01*
X137929839Y-114434236D01*
X138466695Y-113897380D01*
X138825905Y-113897380D01*
X139362761Y-114434236D01*
X139567466Y-114409666D01*
X139693390Y-114018156D01*
X139659904Y-113608258D01*
X139567466Y-113385094D01*
X139362761Y-113360524D01*
X138825905Y-113897380D01*
X138466695Y-113897380D01*
X137929839Y-113360524D01*
X137725134Y-113385094D01*
X137599210Y-113776604D01*
X135685000Y-113776604D01*
X135685000Y-113180919D01*
X138109444Y-113180919D01*
X138646300Y-113717775D01*
X139183156Y-113180919D01*
X139158586Y-112976214D01*
X138767076Y-112850290D01*
X138357178Y-112883776D01*
X138134014Y-112976214D01*
X138109444Y-113180919D01*
X135685000Y-113180919D01*
X135685000Y-111337092D01*
X144412913Y-111337092D01*
X144554958Y-111680868D01*
X144749376Y-111875626D01*
X144711297Y-111967330D01*
X144710973Y-112339296D01*
X144792813Y-112537364D01*
X144684853Y-112645136D01*
X144542207Y-112988664D01*
X144541883Y-113360630D01*
X144683928Y-113704406D01*
X144946718Y-113967655D01*
X145290246Y-114110301D01*
X145662212Y-114110625D01*
X145904623Y-114010463D01*
X157939537Y-114010463D01*
X158259078Y-113946902D01*
X158529971Y-113765897D01*
X159403333Y-112892535D01*
X159643943Y-112793117D01*
X159907192Y-112530327D01*
X160049838Y-112186799D01*
X160050162Y-111814833D01*
X159908117Y-111471057D01*
X159645327Y-111207808D01*
X159301799Y-111065162D01*
X158929833Y-111064838D01*
X158586057Y-111206883D01*
X158322808Y-111469673D01*
X158222222Y-111711910D01*
X157593669Y-112340463D01*
X153793347Y-112340463D01*
X154028943Y-112243117D01*
X154292192Y-111980327D01*
X154434838Y-111636799D01*
X154435162Y-111264833D01*
X154335000Y-111022422D01*
X154335000Y-109427234D01*
X154434838Y-109186799D01*
X154435162Y-108814833D01*
X154293117Y-108471057D01*
X154030327Y-108207808D01*
X153686799Y-108065162D01*
X153314833Y-108064838D01*
X152971057Y-108206883D01*
X152707808Y-108469673D01*
X152565162Y-108813201D01*
X152564969Y-109035077D01*
X152499224Y-109007777D01*
X152127258Y-109007453D01*
X151783482Y-109149498D01*
X151520233Y-109412288D01*
X151377587Y-109755816D01*
X151377263Y-110127782D01*
X151491366Y-110403933D01*
X151491366Y-111188338D01*
X151391528Y-111428773D01*
X151391204Y-111800739D01*
X151533249Y-112144515D01*
X151728855Y-112340463D01*
X149392480Y-112340463D01*
X149437364Y-112295657D01*
X149580010Y-111952129D01*
X149580334Y-111580163D01*
X149438289Y-111236387D01*
X149175499Y-110973138D01*
X148933262Y-110872552D01*
X148622201Y-110561491D01*
X148600499Y-110546990D01*
X148351308Y-110380486D01*
X148031767Y-110316925D01*
X145775309Y-110316925D01*
X145534874Y-110217087D01*
X145162908Y-110216763D01*
X144819132Y-110358808D01*
X144555883Y-110621598D01*
X144413237Y-110965126D01*
X144412913Y-111337092D01*
X135685000Y-111337092D01*
X135685000Y-110304809D01*
X137614881Y-110304809D01*
X137771933Y-110684904D01*
X138062486Y-110975965D01*
X138442306Y-111133680D01*
X138853569Y-111134039D01*
X139233664Y-110976987D01*
X139524725Y-110686434D01*
X139682440Y-110306614D01*
X139682799Y-109895351D01*
X139525747Y-109515256D01*
X139235194Y-109224195D01*
X138855374Y-109066480D01*
X138444111Y-109066121D01*
X138064016Y-109223173D01*
X137772955Y-109513726D01*
X137615240Y-109893546D01*
X137614881Y-110304809D01*
X135685000Y-110304809D01*
X135685000Y-106067467D01*
X135873617Y-105119223D01*
X136372537Y-104372537D01*
X137119225Y-103873617D01*
X138067467Y-103685000D01*
X163932533Y-103685000D01*
X164880777Y-103873617D01*
M02*
